<svg width="20" height="20" viewBox="0 0 20 20" fill="none" xmlns="http://www.w3.org/2000/svg">
<path d="M9.16294 4.51605C9.58094 4.92405 13.6649 9.21105 13.6649 9.21105C13.7708 9.31319 13.855 9.4356 13.9125 9.57099C13.97 9.70638 13.9996 9.85196 13.9996 9.99905C13.9996 10.1461 13.97 10.2917 13.9125 10.4271C13.855 10.5625 13.7708 10.6849 13.6649 10.7871C13.6649 10.7871 9.58094 15.0761 9.16294 15.4821C8.74494 15.8901 7.99294 15.9181 7.54794 15.4821C7.10194 15.0481 7.06694 14.4411 7.54794 13.9081L11.2949 10.0001L7.54794 6.09205C7.06694 5.55905 7.10194 4.95105 7.54794 4.51605C7.99294 4.08005 8.74494 4.10705 9.16294 4.51605Z" fill="#B3B3B3"/>
</svg>
