<svg width="310" height="64" viewBox="0 0 310 64" fill="none" xmlns="http://www.w3.org/2000/svg">
<rect width="310" height="63" rx="31.5" fill="#212529"/>
<path d="M32.8862 25.5642L29.1546 31.9206V36H27.8897V31.9206L24.1581 25.5642H25.6602L27.6841 29.1377L28.5222 30.624L29.3602 29.1377L31.3841 25.5642H32.8862ZM36.6494 27.936C37.3978 27.936 38.0567 28.0994 38.6259 28.4262C39.2056 28.7529 39.6589 29.2273 39.9857 29.8492C40.3125 30.4606 40.4759 31.1932 40.4759 32.0471C40.4759 32.9009 40.3125 33.6388 39.9857 34.2607C39.6589 34.8721 39.2056 35.3412 38.6259 35.668C38.0567 35.9947 37.3978 36.1581 36.6494 36.1581C35.9115 36.1581 35.2527 35.9947 34.6729 35.668C34.0932 35.3412 33.6399 34.8721 33.3131 34.2607C32.9864 33.6388 32.823 32.9009 32.823 32.0471C32.823 31.1932 32.9864 30.4606 33.3131 29.8492C33.6399 29.2273 34.0932 28.7529 34.6729 28.4262C35.2527 28.0994 35.9115 27.936 36.6494 27.936ZM36.6494 29.027C36.1118 29.027 35.6533 29.1482 35.2738 29.3907C34.8943 29.6331 34.5992 29.981 34.3883 30.4343C34.188 30.877 34.0879 31.4146 34.0879 32.0471C34.0879 32.669 34.188 33.2066 34.3883 33.6599C34.5992 34.1131 34.8943 34.461 35.2738 34.7034C35.6533 34.9459 36.1118 35.0671 36.6494 35.0671C37.187 35.0671 37.6456 34.9459 38.025 34.7034C38.4045 34.461 38.6944 34.1131 38.8947 33.6599C39.1055 33.2066 39.2109 32.669 39.2109 32.0471C39.2109 31.4146 39.1055 30.877 38.8947 30.4343C38.6944 29.981 38.4045 29.6331 38.025 29.3907C37.6456 29.1482 37.187 29.027 36.6494 29.027ZM45.7192 36.1581C45.2132 36.1581 44.7336 36.0632 44.2803 35.8735C43.8376 35.6838 43.4739 35.3781 43.1893 34.9564C42.9152 34.5242 42.7782 33.9656 42.7782 33.2804V28.0941H44.0431V32.9483C44.0431 33.7495 44.2171 34.3029 44.5649 34.6086C44.9128 34.9037 45.403 35.0513 46.0354 35.0513C46.3306 35.0513 46.6205 35.0039 46.9051 34.909C47.1897 34.8036 47.4427 34.6455 47.664 34.4346C47.8959 34.2133 48.0751 33.9339 48.2016 33.5966C48.3387 33.2593 48.4072 32.8587 48.4072 32.3949V28.0941H49.6721V36H48.5653L48.4862 34.7983C48.2122 35.2727 47.838 35.6205 47.3636 35.8419C46.8998 36.0527 46.3517 36.1581 45.7192 36.1581ZM52.6161 36V28.0941H53.6438L53.8178 29.3907C54.0391 28.9058 54.3606 28.5421 54.7823 28.2997C55.2145 28.0572 55.7363 27.936 56.3477 27.936C56.4847 27.936 56.6323 27.9465 56.7904 27.9676C56.959 27.9887 57.1014 28.0309 57.2173 28.0941L56.9959 29.2484C56.88 29.2062 56.7535 29.1746 56.6165 29.1535C56.4794 29.1324 56.2844 29.1219 56.0314 29.1219C55.7046 29.1219 55.3726 29.2168 55.0353 29.4065C54.7085 29.5962 54.4344 29.8861 54.2131 30.2761C53.9917 30.6556 53.881 31.1405 53.881 31.7308V36H52.6161ZM67.3935 36.1581C66.6451 36.1581 65.9757 35.9947 65.3854 35.668C64.8057 35.3412 64.3524 34.8721 64.0256 34.2607C63.6989 33.6388 63.5355 32.9009 63.5355 32.0471C63.5355 31.1932 63.6989 30.4606 64.0256 29.8492C64.3524 29.2273 64.8004 28.7529 65.3696 28.4262C65.9389 28.0994 66.5871 27.936 67.3145 27.936C68.0524 27.936 68.6796 28.0941 69.1961 28.4104C69.7231 28.7266 70.1237 29.1588 70.3978 29.7069C70.6718 30.2445 70.8089 30.8506 70.8089 31.5253C70.8089 31.7045 70.8036 31.8679 70.7931 32.0154C70.7825 32.163 70.7667 32.2948 70.7456 32.4107H64.3577V31.2881H70.1922L69.5439 31.4146C69.5439 30.6556 69.3331 30.0706 68.9115 29.6595C68.5004 29.2484 67.9575 29.0428 67.2829 29.0428C66.7663 29.0428 66.3183 29.164 65.9389 29.4065C65.5699 29.6384 65.28 29.981 65.0692 30.4343C64.8689 30.877 64.7688 31.4146 64.7688 32.0471C64.7688 32.669 64.8742 33.2066 65.085 33.6599C65.2958 34.1131 65.591 34.461 65.9705 34.7034C66.3605 34.9353 66.8243 35.0513 67.3619 35.0513C67.9417 35.0513 68.4108 34.9406 68.7692 34.7192C69.1381 34.4979 69.4333 34.1975 69.6546 33.818L70.6508 34.403C70.4505 34.7614 70.1922 35.0724 69.876 35.3359C69.5703 35.5994 69.2066 35.805 68.785 35.9526C68.3739 36.0896 67.9101 36.1581 67.3935 36.1581ZM73.2146 36V28.0941H74.3214L74.4005 29.3274C74.6851 28.8425 75.054 28.4894 75.5073 28.268C75.9711 28.0467 76.4455 27.936 76.9304 27.936C77.4891 27.936 78.0161 28.0625 78.5116 28.3155C79.007 28.5685 79.3865 28.9585 79.65 29.4856C79.8187 29.1272 80.0558 28.8373 80.3615 28.6159C80.6672 28.384 80.9993 28.2153 81.3577 28.1099C81.7266 27.994 82.0745 27.936 82.4012 27.936C82.9072 27.936 83.3868 28.0414 83.8401 28.2522C84.3039 28.4631 84.6834 28.7898 84.9786 29.2326C85.2737 29.6753 85.4213 30.2445 85.4213 30.9402V36H84.1564V31.0667C84.1564 30.3499 83.9772 29.8334 83.6188 29.5172C83.2604 29.2009 82.8176 29.0428 82.2906 29.0428C81.8795 29.0428 81.4947 29.143 81.1363 29.3432C80.7779 29.5435 80.488 29.8387 80.2667 30.2287C80.0558 30.6187 79.9504 31.0984 79.9504 31.6676V36H78.6855V31.0667C78.6855 30.3499 78.5063 29.8334 78.1479 29.5172C77.7895 29.2009 77.3468 29.0428 76.8197 29.0428C76.4718 29.0428 76.1134 29.1377 75.7445 29.3274C75.3861 29.5066 75.0857 29.7965 74.8432 30.1971C74.6008 30.5976 74.4796 31.1247 74.4796 31.7783V36H73.2146ZM92.9022 30.8928C92.9022 30.3025 92.7441 29.8492 92.4279 29.533C92.1116 29.2062 91.6636 29.0428 91.0839 29.0428C90.5357 29.0428 90.0719 29.164 89.6924 29.4065C89.313 29.6384 89.0336 30.0179 88.8544 30.5449L87.8267 29.9125C88.0375 29.3222 88.4275 28.8478 88.9967 28.4894C89.566 28.1205 90.2722 27.936 91.1155 27.936C91.6847 27.936 92.2012 28.0361 92.6651 28.2364C93.1289 28.4262 93.4925 28.7213 93.7561 29.1219C94.0301 29.5119 94.1672 30.0179 94.1672 30.6398V34.4663C94.1672 34.8457 94.3675 35.0355 94.768 35.0355C94.9683 35.0355 95.1633 35.0091 95.3531 34.9564L95.2898 35.9526C95.079 36.058 94.8049 36.1107 94.4676 36.1107C94.1619 36.1107 93.8878 36.0527 93.6454 35.9368C93.4029 35.8208 93.2132 35.6469 93.0762 35.415C92.9391 35.1725 92.8706 34.8721 92.8706 34.5137V34.3556L93.1868 34.403C93.0604 34.8141 92.8443 35.1514 92.5386 35.415C92.2329 35.668 91.8903 35.8577 91.5108 35.9842C91.1313 36.1001 90.7571 36.1581 90.3882 36.1581C89.9244 36.1581 89.4922 36.0791 89.0916 35.9209C88.691 35.7628 88.3695 35.5256 88.1271 35.2094C87.8952 34.8826 87.7792 34.4821 87.7792 34.0077C87.7792 33.4174 87.9742 32.9325 88.3643 32.553C88.7648 32.163 89.3182 31.8995 90.0245 31.7624L93.1552 31.1458V32.1894L90.6095 32.7112C90.093 32.8166 89.7083 32.9641 89.4553 33.1539C89.2023 33.3436 89.0758 33.6072 89.0758 33.9445C89.0758 34.2712 89.2023 34.54 89.4553 34.7509C89.7188 34.9512 90.0877 35.0513 90.5621 35.0513C90.8678 35.0513 91.1577 35.0144 91.4317 34.9406C91.7164 34.8563 91.9693 34.7351 92.1907 34.5769C92.4121 34.4083 92.586 34.2027 92.7125 33.9603C92.839 33.7073 92.9022 33.4121 92.9022 33.0748V30.8928ZM97.8735 26.5762C97.5889 26.5762 97.357 26.4919 97.1778 26.3232C97.0092 26.144 96.9248 25.9121 96.9248 25.6275C96.9248 25.3429 97.0092 25.1162 97.1778 24.9476C97.357 24.7684 97.5889 24.6788 97.8735 24.6788C98.1582 24.6788 98.3848 24.7684 98.5535 24.9476C98.7327 25.1162 98.8223 25.3429 98.8223 25.6275C98.8223 25.9121 98.7327 26.144 98.5535 26.3232C98.3848 26.4919 98.1582 26.5762 97.8735 26.5762ZM98.506 28.0941V36H97.2411V28.0941H98.506ZM102.643 24.4574V33.9919C102.643 34.3925 102.717 34.6718 102.864 34.8299C103.012 34.9775 103.249 35.0513 103.576 35.0513C103.786 35.0513 103.96 35.0355 104.097 35.0039C104.234 34.9722 104.419 34.9143 104.651 34.8299L104.445 35.9368C104.277 36.0105 104.092 36.0632 103.892 36.0949C103.692 36.137 103.486 36.1581 103.275 36.1581C102.632 36.1581 102.153 35.9842 101.836 35.6363C101.531 35.2885 101.378 34.7561 101.378 34.0393V24.4574H102.643ZM115.724 30.8928C115.724 30.3025 115.566 29.8492 115.25 29.533C114.934 29.2062 114.486 29.0428 113.906 29.0428C113.358 29.0428 112.894 29.164 112.515 29.4065C112.135 29.6384 111.856 30.0179 111.676 30.5449L110.649 29.9125C110.86 29.3222 111.25 28.8478 111.819 28.4894C112.388 28.1205 113.094 27.936 113.938 27.936C114.507 27.936 115.023 28.0361 115.487 28.2364C115.951 28.4262 116.315 28.7213 116.578 29.1219C116.852 29.5119 116.989 30.0179 116.989 30.6398V34.4663C116.989 34.8457 117.19 35.0355 117.59 35.0355C117.79 35.0355 117.985 35.0091 118.175 34.9564L118.112 35.9526C117.901 36.058 117.627 36.1107 117.29 36.1107C116.984 36.1107 116.71 36.0527 116.467 35.9368C116.225 35.8208 116.035 35.6469 115.898 35.415C115.761 35.1725 115.693 34.8721 115.693 34.5137V34.3556L116.009 34.403C115.882 34.8141 115.666 35.1514 115.361 35.415C115.055 35.668 114.712 35.8577 114.333 35.9842C113.953 36.1001 113.579 36.1581 113.21 36.1581C112.746 36.1581 112.314 36.0791 111.914 35.9209C111.513 35.7628 111.192 35.5256 110.949 35.2094C110.717 34.8826 110.601 34.4821 110.601 34.0077C110.601 33.4174 110.796 32.9325 111.186 32.553C111.587 32.163 112.14 31.8995 112.847 31.7624L115.977 31.1458V32.1894L113.432 32.7112C112.915 32.8166 112.53 32.9641 112.277 33.1539C112.024 33.3436 111.898 33.6072 111.898 33.9445C111.898 34.2712 112.024 34.54 112.277 34.7509C112.541 34.9512 112.91 35.0513 113.384 35.0513C113.69 35.0513 113.98 35.0144 114.254 34.9406C114.538 34.8563 114.791 34.7351 115.013 34.5769C115.234 34.4083 115.408 34.2027 115.535 33.9603C115.661 33.7073 115.724 33.4121 115.724 33.0748V30.8928ZM123.146 36.1581C122.493 36.1581 121.892 35.9947 121.344 35.668C120.796 35.3412 120.358 34.8721 120.032 34.2607C119.705 33.6388 119.541 32.9009 119.541 32.0471C119.541 31.1721 119.715 30.429 120.063 29.8176C120.411 29.2062 120.87 28.7424 121.439 28.4262C122.008 28.0994 122.619 27.936 123.273 27.936C123.926 27.936 124.49 28.1047 124.965 28.442C125.45 28.7793 125.771 29.2273 125.929 29.786L125.771 29.8967V24.4574H127.036V36H125.929L125.819 34.0868L125.993 33.9919C125.919 34.4557 125.74 34.851 125.455 35.1778C125.181 35.494 124.838 35.7365 124.427 35.9051C124.027 36.0738 123.6 36.1581 123.146 36.1581ZM123.273 35.0513C123.779 35.0513 124.216 34.9248 124.585 34.6718C124.965 34.4188 125.255 34.0604 125.455 33.5966C125.666 33.1223 125.771 32.5688 125.771 31.9364C125.771 31.3355 125.666 30.819 125.455 30.3868C125.255 29.9546 124.97 29.6226 124.601 29.3907C124.243 29.1588 123.821 29.0428 123.336 29.0428C122.535 29.0428 121.913 29.3169 121.47 29.865C121.028 30.4132 120.806 31.1405 120.806 32.0471C120.806 32.9536 121.022 33.6809 121.455 34.2291C121.887 34.7772 122.493 35.0513 123.273 35.0513ZM133.06 36.1581C132.406 36.1581 131.805 35.9947 131.257 35.668C130.709 35.3412 130.272 34.8721 129.945 34.2607C129.618 33.6388 129.455 32.9009 129.455 32.0471C129.455 31.1721 129.629 30.429 129.976 29.8176C130.324 29.2062 130.783 28.7424 131.352 28.4262C131.921 28.0994 132.533 27.936 133.186 27.936C133.84 27.936 134.404 28.1047 134.878 28.442C135.363 28.7793 135.684 29.2273 135.843 29.786L135.684 29.8967V24.4574H136.949V36H135.843L135.732 34.0868L135.906 33.9919C135.832 34.4557 135.653 34.851 135.368 35.1778C135.094 35.494 134.752 35.7365 134.34 35.9051C133.94 36.0738 133.513 36.1581 133.06 36.1581ZM133.186 35.0513C133.692 35.0513 134.13 34.9248 134.499 34.6718C134.878 34.4188 135.168 34.0604 135.368 33.5966C135.579 33.1223 135.684 32.5688 135.684 31.9364C135.684 31.3355 135.579 30.819 135.368 30.3868C135.168 29.9546 134.883 29.6226 134.514 29.3907C134.156 29.1588 133.734 29.0428 133.249 29.0428C132.448 29.0428 131.826 29.3169 131.384 29.865C130.941 30.4132 130.72 31.1405 130.72 32.0471C130.72 32.9536 130.936 33.6809 131.368 34.2291C131.8 34.7772 132.406 35.0513 133.186 35.0513ZM139.89 36V28.0941H140.917L141.091 29.3907C141.313 28.9058 141.634 28.5421 142.056 28.2997C142.488 28.0572 143.01 27.936 143.621 27.936C143.758 27.936 143.906 27.9465 144.064 27.9676C144.233 27.9887 144.375 28.0309 144.491 28.0941L144.269 29.2484C144.154 29.2062 144.027 29.1746 143.89 29.1535C143.753 29.1324 143.558 29.1219 143.305 29.1219C142.978 29.1219 142.646 29.2168 142.309 29.4065C141.982 29.5962 141.708 29.8861 141.487 30.2761C141.265 30.6556 141.155 31.1405 141.155 31.7308V36H139.89ZM149.402 36.1581C148.653 36.1581 147.984 35.9947 147.394 35.668C146.814 35.3412 146.36 34.8721 146.034 34.2607C145.707 33.6388 145.544 32.9009 145.544 32.0471C145.544 31.1932 145.707 30.4606 146.034 29.8492C146.36 29.2273 146.808 28.7529 147.378 28.4262C147.947 28.0994 148.595 27.936 149.323 27.936C150.06 27.936 150.688 28.0941 151.204 28.4104C151.731 28.7266 152.132 29.1588 152.406 29.7069C152.68 30.2445 152.817 30.8506 152.817 31.5253C152.817 31.7045 152.812 31.8679 152.801 32.0154C152.791 32.163 152.775 32.2948 152.754 32.4107H146.366V31.2881H152.2L151.552 31.4146C151.552 30.6556 151.341 30.0706 150.92 29.6595C150.508 29.2484 149.966 29.0428 149.291 29.0428C148.774 29.0428 148.326 29.164 147.947 29.4065C147.578 29.6384 147.288 29.981 147.077 30.4343C146.877 30.877 146.777 31.4146 146.777 32.0471C146.777 32.669 146.882 33.2066 147.093 33.6599C147.304 34.1131 147.599 34.461 147.979 34.7034C148.369 34.9353 148.832 35.0513 149.37 35.0513C149.95 35.0513 150.419 34.9406 150.777 34.7192C151.146 34.4979 151.441 34.1975 151.663 33.818L152.659 34.403C152.459 34.7614 152.2 35.0724 151.884 35.3359C151.578 35.5994 151.215 35.805 150.793 35.9526C150.382 36.0896 149.918 36.1581 149.402 36.1581ZM158.069 36.1581C157.299 36.1581 156.588 35.9947 155.934 35.668C155.291 35.3412 154.796 34.8774 154.448 34.2765L155.523 33.5017C155.755 33.9866 156.092 34.3661 156.535 34.6402C156.988 34.9143 157.531 35.0513 158.164 35.0513C158.722 35.0513 159.16 34.9459 159.476 34.7351C159.792 34.5137 159.95 34.2291 159.95 33.8812C159.95 33.6599 159.877 33.4596 159.729 33.2804C159.592 33.0906 159.323 32.9536 158.923 32.8693L157.025 32.474C156.256 32.3159 155.702 32.0523 155.365 31.6834C155.038 31.3144 154.875 30.8559 154.875 30.3078C154.875 29.8756 154.996 29.4803 155.239 29.1219C155.492 28.7635 155.845 28.4789 156.298 28.268C156.762 28.0467 157.305 27.936 157.927 27.936C158.707 27.936 159.365 28.0888 159.903 28.3945C160.441 28.7002 160.841 29.1324 161.105 29.6911L160.045 30.3868C159.866 29.923 159.576 29.5857 159.176 29.3749C158.775 29.1535 158.359 29.0428 157.927 29.0428C157.547 29.0428 157.22 29.0955 156.946 29.2009C156.683 29.3064 156.477 29.4539 156.33 29.6437C156.192 29.8229 156.124 30.0284 156.124 30.2603C156.124 30.4922 156.203 30.7083 156.361 30.9086C156.519 31.0984 156.814 31.2354 157.247 31.3197L159.223 31.7308C159.961 31.8784 160.477 32.1208 160.773 32.4582C161.068 32.7955 161.215 33.2066 161.215 33.6915C161.215 34.1869 161.084 34.6244 160.82 35.0039C160.557 35.3728 160.188 35.6574 159.713 35.8577C159.239 36.058 158.691 36.1581 158.069 36.1581ZM166.407 36.1581C165.638 36.1581 164.926 35.9947 164.272 35.668C163.629 35.3412 163.134 34.8774 162.786 34.2765L163.861 33.5017C164.093 33.9866 164.431 34.3661 164.873 34.6402C165.327 34.9143 165.869 35.0513 166.502 35.0513C167.061 35.0513 167.498 34.9459 167.814 34.7351C168.131 34.5137 168.289 34.2291 168.289 33.8812C168.289 33.6599 168.215 33.4596 168.067 33.2804C167.93 33.0906 167.661 32.9536 167.261 32.8693L165.363 32.474C164.594 32.3159 164.041 32.0523 163.703 31.6834C163.376 31.3144 163.213 30.8559 163.213 30.3078C163.213 29.8756 163.334 29.4803 163.577 29.1219C163.83 28.7635 164.183 28.4789 164.636 28.268C165.1 28.0467 165.643 27.936 166.265 27.936C167.045 27.936 167.704 28.0888 168.241 28.3945C168.779 28.7002 169.179 29.1324 169.443 29.6911L168.384 30.3868C168.204 29.923 167.914 29.5857 167.514 29.3749C167.113 29.1535 166.697 29.0428 166.265 29.0428C165.885 29.0428 165.558 29.0955 165.284 29.2009C165.021 29.3064 164.815 29.4539 164.668 29.6437C164.531 29.8229 164.462 30.0284 164.462 30.2603C164.462 30.4922 164.541 30.7083 164.699 30.9086C164.857 31.0984 165.153 31.2354 165.585 31.3197L167.561 31.7308C168.299 31.8784 168.816 32.1208 169.111 32.4582C169.406 32.7955 169.554 33.2066 169.554 33.6915C169.554 34.1869 169.422 34.6244 169.158 35.0039C168.895 35.3728 168.526 35.6574 168.051 35.8577C167.577 36.058 167.029 36.1581 166.407 36.1581Z" fill="#7C7C7C"/>
<rect x="245" width="64.7529" height="63.2471" rx="31.6235" fill="#FFB742"/>
<path d="M287.378 20.1451L266.561 32.1548C265.748 32.6219 265.851 33.7537 266.66 34.095L271.434 36.0981L284.337 24.7262C284.584 24.5061 284.935 24.843 284.724 25.099L273.904 38.2809V41.8964C273.904 42.9563 275.184 43.374 275.813 42.606L278.665 39.1343L284.261 41.4787C284.899 41.7482 285.626 41.3485 285.743 40.6613L288.977 21.2589C289.13 20.3517 288.155 19.696 287.378 20.1451Z" fill="#212529"/>
</svg>
